HIERARCHY
ROOT joint_Root
{
	OFFSET 0.0 0.0 0.0
	CHANNELS 6 Xposition Yposition Zposition Zrotation Xrotation Yrotation 
	JOINT Hips
	{
		OFFSET -0.726466 93.3139 -2.00062
		CHANNELS 6 Xposition Yposition Zposition Zrotation Xrotation Yrotation 
		JOINT Spine
		{
			OFFSET 15.7357 0.0 0.0
			CHANNELS 6 Xposition Yposition Zposition Zrotation Xrotation Yrotation 
			JOINT Chest
			{
				OFFSET 8.98455 -0.406207 0.0
				CHANNELS 6 Xposition Yposition Zposition Zrotation Xrotation Yrotation 
				JOINT Neck
				{
					OFFSET 16.3773 0.0 0.0
					CHANNELS 6 Xposition Yposition Zposition Zrotation Xrotation Yrotation 
					JOINT Head
					{
						OFFSET 6.45672 0.0 0.0
						CHANNELS 6 Xposition Yposition Zposition Zrotation Xrotation Yrotation 
						End Site
						{
							OFFSET 0.0 0.0 0.0
						}
					}
				}
				JOINT Shoulder_L
				{
					OFFSET 12.9942 -0.242716 4.98039
					CHANNELS 6 Xposition Yposition Zposition Zrotation Xrotation Yrotation 
					JOINT UpperArm_L
					{
						OFFSET 5.34809 0.0 0.0
						CHANNELS 6 Xposition Yposition Zposition Zrotation Xrotation Yrotation 
						JOINT LowerArm_L
						{
							OFFSET 24.3286 1.87007e-05 0.0
							CHANNELS 6 Xposition Yposition Zposition Zrotation Xrotation Yrotation 
							JOINT Hand_L
							{
								OFFSET 22.2916 0.0 0.0
								CHANNELS 6 Xposition Yposition Zposition Zrotation Xrotation Yrotation 
								End Site
								{
									OFFSET 0.0 0.0 0.0
								}
							}
						}
					}
				}
				JOINT Shoulder_R
				{
					OFFSET 12.9945 -0.242716 -4.98039
					CHANNELS 6 Xposition Yposition Zposition Zrotation Xrotation Yrotation 
					JOINT UpperArm_R
					{
						OFFSET -5.34813 0.0 0.0
						CHANNELS 6 Xposition Yposition Zposition Zrotation Xrotation Yrotation 
						JOINT LowerArm_R
						{
							OFFSET -24.3289 0.000322201 0.0
							CHANNELS 6 Xposition Yposition Zposition Zrotation Xrotation Yrotation 
							JOINT Hand_R
							{
								OFFSET -22.2915 -0.000108084 0.0
								CHANNELS 6 Xposition Yposition Zposition Zrotation Xrotation Yrotation 
								End Site
								{
									OFFSET 0.0 0.0 0.0
								}
							}
						}
					}
				}
			}
		}
		JOINT UpperLeg_L
		{
			OFFSET -2.19248 -6.46944 0.0
			CHANNELS 6 Xposition Yposition Zposition Zrotation Xrotation Yrotation 
			JOINT LowerLeg_L
			{
				OFFSET 39.0811 0.0 -1.23785e-05
				CHANNELS 6 Xposition Yposition Zposition Zrotation Xrotation Yrotation 
				JOINT Foot_L
				{
					OFFSET 40.9854 0.0 -1.26872e-05
					CHANNELS 6 Xposition Yposition Zposition Zrotation Xrotation Yrotation 
					JOINT Toes_L
					{
						OFFSET 11.7543 0.0 0.0
						CHANNELS 6 Xposition Yposition Zposition Zrotation Xrotation Yrotation 
						End Site
						{
							OFFSET 0.0 0.0 0.0
						}
					}
				}
			}
		}
		JOINT UpperLeg_R
		{
			OFFSET -2.19251 6.46944 0.0
			CHANNELS 6 Xposition Yposition Zposition Zrotation Xrotation Yrotation 
			JOINT LowerLeg_R
			{
				OFFSET -39.0811 -0.00228153 -0.0401928
				CHANNELS 6 Xposition Yposition Zposition Zrotation Xrotation Yrotation 
				JOINT Foot_R
				{
					OFFSET -40.9854 0.0 0.0
					CHANNELS 6 Xposition Yposition Zposition Zrotation Xrotation Yrotation 
					JOINT Toes_R
					{
						OFFSET -11.7543 0.0 0.0
						CHANNELS 6 Xposition Yposition Zposition Zrotation Xrotation Yrotation 
						End Site
						{
							OFFSET 0.0 0.0 0.0
						}
					}
				}
			}
		}
	}
}
MOTION
Frames:	9
Frame Time:	0.0333333
0.000000 0.000000 0.000000 0.000000 0.000000 -0.000000 -178.535000 88.370900 178.177000 28.694600 85.708500 59.782100 15.735700 0.000005 -0.000001 73.670200 83.942700 -71.738200 8.984550 -0.406207 -0.000000 3.927240 -3.466090 3.979620 16.377300 -0.000001 -0.000001 2.330400 -0.869033 1.111760 6.456720 -0.000001 -0.000000 3.573070 3.039870 -3.230670 12.994200 -0.242716 4.980390 -90.013800 0.046967 -73.656400 5.348090 -0.000007 -0.000001 -56.988200 22.023800 -38.878700 24.328600 0.000019 0.000005 2.543730 4.290030 -30.707000 22.291600 -0.000001 0.000005 12.265800 5.515210 -7.158570 12.994500 -0.242716 -4.980390 87.274000 8.019390 -71.155800 -5.348130 -0.000001 -0.000004 -70.782600 23.388900 0.544550 -24.328900 0.000322 -0.000009 1.907400 15.072400 -7.301950 -22.291500 -0.000108 -0.000004 9.324930 5.304730 -0.061072 -2.192480 -6.469440 -0.000000 -170.131000 -5.438910 11.183900 39.081100 -0.000007 -0.000012 -0.021477 0.054363 21.557400 40.985400 -0.000006 -0.000013 2.580090 9.797560 -72.210800 11.754300 -0.000000 0.000003 -1.322600 -1.403290 -25.641400 -2.192510 6.469440 -0.000001 -173.394000 14.023600 148.593000 -39.081100 -0.002282 -0.040193 0.031712 -0.067938 22.683100 -40.985400 0.000008 0.000006 3.492790 -2.500780 -46.641100 -11.754300 -0.000006 -0.000006 -0.019036 -0.161889 -23.185500
0.000000 0.000000 0.000000 0.000000 0.000000 -0.000000 -174.112000 88.300400 179.747000 14.853200 84.708300 74.084700 15.735700 0.000005 -0.000001 73.483300 84.107900 -70.967000 8.984550 -0.406207 -0.000000 3.617900 -3.436970 5.136930 16.377300 -0.000001 -0.000001 2.521860 -0.793169 1.019870 6.456720 -0.000001 -0.000000 4.009780 2.903250 -3.551270 12.994200 -0.242716 4.980390 -90.047700 0.159966 -73.406600 5.348090 -0.000007 -0.000001 -57.748200 21.683400 -37.638600 24.328600 0.000019 0.000005 2.129570 3.277290 -33.045300 22.291600 -0.000001 0.000005 12.759400 5.524480 -7.553580 12.994500 -0.242716 -4.980390 87.120300 8.396070 -70.990900 -5.348130 -0.000001 -0.000004 -70.319600 23.649000 0.227124 -24.328900 0.000322 -0.000009 1.841290 14.795600 -7.178920 -22.291500 -0.000108 -0.000004 9.258180 5.301690 0.024712 -2.192480 -6.469440 -0.000000 -167.641000 -3.834720 11.329200 39.081100 -0.000007 -0.000012 -0.007147 0.014536 26.182700 40.985400 -0.000006 -0.000013 1.526890 10.287200 -68.130800 11.754300 -0.000000 0.000003 -0.076523 -0.382116 -32.426600 -2.192510 6.469440 -0.000001 -173.418000 10.433600 149.248000 -39.081100 -0.002282 -0.040193 0.016865 -0.024947 28.527000 -40.985400 0.000008 0.000006 2.211850 -6.536340 -49.326000 -11.754300 -0.000006 -0.000006 -0.012258 -0.119797 -21.457100
0.000000 0.000000 0.000000 0.000000 0.000000 -0.000000 -169.601000 88.541700 181.096000 13.200400 84.333300 77.348200 15.735700 0.000005 -0.000001 74.757600 83.851800 -71.985500 8.984550 -0.406207 -0.000000 4.189760 -3.314160 5.660500 16.377300 -0.000001 -0.000001 2.567870 -0.618465 0.997232 6.456720 -0.000001 -0.000000 4.250300 2.994000 -4.000850 12.994200 -0.242716 4.980390 -90.019800 0.065706 -73.211600 5.348090 -0.000007 -0.000001 -59.442100 21.695300 -34.754500 24.328600 0.000019 0.000005 2.010810 2.757210 -36.125300 22.291600 -0.000001 0.000005 12.775500 5.534130 -7.979360 12.994500 -0.242716 -4.980390 87.189000 8.293110 -71.200600 -5.348130 -0.000001 -0.000004 -70.007700 24.843000 -1.186040 -24.328900 0.000322 -0.000009 1.812220 14.332300 -7.287820 -22.291500 -0.000108 -0.000004 8.873160 5.306300 -0.104979 -2.192480 -6.469440 -0.000000 -167.136000 -1.985200 10.395200 39.081100 -0.000007 -0.000012 0.027755 -0.041794 33.587000 40.985400 -0.000006 -0.000013 1.386120 8.433160 -60.346600 11.754300 -0.000000 0.000003 -0.149454 -0.553671 -39.989800 -2.192510 6.469440 -0.000001 -173.568000 8.557010 152.189000 -39.081100 -0.002282 -0.040193 -0.041269 0.069018 32.850400 -40.985400 0.000008 0.000006 1.170970 -8.416380 -54.903100 -11.754300 -0.000006 -0.000006 -0.008247 -0.090036 -20.239700
0.000000 0.000000 0.000000 0.000000 0.000000 -0.000000 -165.488000 89.086600 182.295000 11.450500 84.459400 80.419600 15.735700 0.000005 -0.000001 76.584300 83.625800 -73.812200 8.984550 -0.406207 -0.000000 4.719100 -3.025970 5.663770 16.377300 -0.000001 -0.000001 2.540610 -0.798284 1.249070 6.456720 -0.000001 -0.000000 4.409390 2.773290 -3.874480 12.994200 -0.242716 4.980390 -89.943000 -0.187288 -73.081900 5.348090 -0.000007 -0.000001 -60.643900 23.020900 -32.164200 24.328600 0.000019 0.000005 1.533280 1.937820 -38.368200 22.291600 -0.000001 0.000005 12.765600 5.552020 -8.804260 12.994500 -0.242716 -4.980390 87.226500 8.221180 -71.284500 -5.348130 -0.000001 -0.000004 -69.392500 26.315800 -3.543770 -24.328900 0.000322 -0.000009 1.947450 13.991800 -8.009820 -22.291500 -0.000108 -0.000004 8.178090 5.307290 -0.133297 -2.192480 -6.469440 -0.000000 -167.437000 -0.630161 6.452140 39.081100 -0.000007 -0.000012 0.072865 -0.076802 43.492200 40.985400 -0.000006 -0.000013 1.460010 6.082030 -50.233000 11.754300 -0.000000 0.000003 -0.102472 -0.450660 -35.398300 -2.192510 6.469440 -0.000001 -173.532000 9.090190 156.185000 -39.081100 -0.002282 -0.040193 -0.078119 0.121314 33.865200 -40.985400 0.000008 0.000006 0.995774 -8.233940 -58.689400 -11.754300 -0.000006 -0.000006 -0.006889 -0.078709 -19.777200
0.000000 0.000000 0.000000 0.000000 0.000000 -0.000000 -162.092000 89.535800 183.233000 14.037300 84.542100 78.266600 15.735700 0.000005 -0.000001 80.668000 83.680700 -77.981000 8.984550 -0.406207 -0.000000 4.763210 -2.115870 5.456510 16.377300 -0.000001 -0.000001 2.427240 -1.223570 1.515870 6.456720 -0.000001 -0.000000 4.502110 1.978340 -3.108600 12.994200 -0.242716 4.980390 -89.861000 -0.448016 -72.762700 5.348090 -0.000007 -0.000001 -61.182400 25.708500 -30.440200 24.328600 0.000019 0.000005 1.196950 1.458410 -39.381900 22.291600 -0.000001 0.000005 12.162400 5.561460 -9.260820 12.994500 -0.242716 -4.980390 87.256300 8.169140 -71.362600 -5.348130 -0.000001 -0.000004 -68.321100 27.720400 -6.215750 -24.328900 0.000322 -0.000009 2.313790 13.429200 -9.874210 -22.291500 -0.000108 -0.000004 8.314610 5.316340 -0.389818 -2.192480 -6.469440 -0.000000 -168.120000 0.108263 -0.234067 39.081100 -0.000007 -0.000012 0.117751 -0.086073 53.833100 40.985400 -0.000006 -0.000013 0.382623 1.786170 -38.331700 11.754300 -0.000000 0.000003 -0.010533 -0.107592 -20.961100 -2.192510 6.469440 -0.000001 -173.486000 9.074120 159.289000 -39.081100 -0.002282 -0.040193 -0.097278 0.150331 33.782800 -40.985400 0.000008 0.000006 0.905235 -8.152270 -61.325100 -11.754300 -0.000006 -0.000006 -0.006833 -0.078224 -19.757400
0.000000 0.000000 0.000000 0.000000 0.000000 -0.000000 -158.903000 90.120300 183.841000 25.420100 84.507800 67.088800 15.735700 0.000005 -0.000001 86.747700 83.731500 -84.278700 8.984550 -0.406207 -0.000000 4.772510 -0.774282 4.964800 16.377300 -0.000001 -0.000001 2.360650 -1.436380 1.789090 6.456720 -0.000001 -0.000000 4.512770 0.894076 -2.349500 12.994200 -0.242716 4.980390 -89.775800 -0.699495 -72.226300 5.348090 -0.000007 -0.000001 -61.824100 28.613600 -28.701300 24.328600 0.000019 0.000005 1.891060 2.289090 -39.577300 22.291600 -0.000001 0.000005 10.614100 5.563020 -9.332550 12.994500 -0.242716 -4.980390 87.359100 8.137530 -71.951600 -5.348130 -0.000001 -0.000004 -66.748600 28.815000 -9.281040 -24.328900 0.000322 -0.000009 2.718160 12.508000 -12.371000 -22.291500 -0.000108 -0.000004 8.981560 5.328940 -0.753806 -2.192480 -6.469440 -0.000000 -169.038000 -1.168080 -5.948340 39.081100 -0.000007 -0.000012 0.144753 -0.077894 61.713200 40.985400 -0.000006 -0.000013 0.717327 -2.920350 -37.022700 11.754300 -0.000000 0.000003 -0.008315 -0.090593 -20.266100 -2.192510 6.469440 -0.000001 -173.791000 8.135280 162.716000 -39.081100 -0.002282 -0.040193 -0.102883 0.168306 32.246800 -40.985400 0.000008 0.000006 0.719451 -8.134440 -62.966200 -11.754300 -0.000006 -0.000006 -0.007126 -0.080741 -19.860200
0.000000 0.000000 0.000000 0.000000 0.000000 -0.000000 -155.870000 90.807100 184.161000 41.521000 84.535900 50.962900 15.735700 0.000005 -0.000001 92.550400 83.761300 -90.506300 8.984550 -0.406207 -0.000000 4.693500 0.499478 4.063220 16.377300 -0.000001 -0.000001 2.385270 -1.499810 1.976940 6.456720 -0.000001 -0.000000 4.544540 -0.104300 -1.936550 12.994200 -0.242716 4.980390 -89.725800 -0.824403 -71.599600 5.348090 -0.000007 -0.000001 -62.582500 31.463600 -26.321800 24.328600 0.000019 0.000005 2.884850 3.497340 -39.560200 22.291600 -0.000001 0.000005 9.109520 5.553370 -8.864610 12.994500 -0.242716 -4.980390 87.472300 8.082140 -72.568200 -5.348130 -0.000001 -0.000004 -64.463900 30.075700 -13.170700 -24.328900 0.000322 -0.000009 2.904660 11.101000 -14.770200 -22.291500 -0.000108 -0.000004 9.681860 5.345020 -1.227220 -2.192480 -6.469440 -0.000000 -170.785000 -3.223640 -10.980600 39.081100 -0.000007 -0.000012 0.121066 -0.052630 66.502200 40.985400 -0.000006 -0.000013 3.151940 -3.497420 -42.432000 11.754300 -0.000000 0.000003 -0.006528 -0.075566 -19.652600 -2.192510 6.469440 -0.000001 -174.825000 8.035740 166.249000 -39.081100 -0.002282 -0.040193 -0.102484 0.185328 29.718000 -40.985400 0.000008 0.000006 0.702900 -6.975150 -63.930500 -11.754300 -0.000006 -0.000006 -0.007405 -0.083107 -19.956700
0.000000 0.000000 0.000000 0.000000 0.000000 -0.000000 -152.985000 91.341000 184.352000 58.320100 84.137200 33.992900 15.735700 0.000005 -0.000001 96.976100 83.732700 -95.436600 8.984550 -0.406207 -0.000000 4.659050 1.477940 3.015500 16.377300 -0.000001 -0.000001 2.293120 -1.247220 2.069100 6.456720 -0.000001 -0.000000 4.579590 -0.768250 -2.005060 12.994200 -0.242716 4.980390 -89.664000 -0.970928 -70.912500 5.348090 -0.000007 -0.000001 -64.130900 33.516500 -22.904800 24.328600 0.000019 0.000005 3.550610 4.375310 -39.123000 22.291600 -0.000001 0.000005 8.076390 5.549680 -8.689460 12.994500 -0.242716 -4.980390 87.641400 7.926140 -73.369500 -5.348130 -0.000001 -0.000004 -61.859500 31.025400 -17.776600 -24.328900 0.000322 -0.000009 3.047010 10.077600 -16.928000 -22.291500 -0.000108 -0.000004 10.405800 5.357420 -1.601100 -2.192480 -6.469440 -0.000000 -172.762000 -5.153420 -15.996300 39.081100 -0.000007 -0.000012 0.119450 -0.047934 68.132400 40.985400 -0.000006 -0.000013 2.911490 -4.166050 -44.947500 11.754300 -0.000000 0.000003 -0.006359 -0.074075 -19.591800 -2.192510 6.469440 -0.000001 -176.178000 8.835930 169.375000 -39.081100 -0.002282 -0.040193 -0.098489 0.196835 27.346500 -40.985400 0.000008 0.000006 0.796816 -4.920710 -64.800000 -11.754300 -0.000006 -0.000006 -0.008108 -0.088915 -20.193900
0.000000 0.000000 0.000000 0.000000 0.000000 -0.000000 -150.055000 91.708700 184.509000 71.323300 83.118500 21.298200 15.735700 0.000005 -0.000001 101.249000 83.531800 -100.145000 8.984550 -0.406207 -0.000000 4.902500 2.491100 2.099810 16.377300 -0.000001 -0.000001 2.302200 -0.992517 2.017810 6.456720 -0.000001 -0.000000 4.448540 -1.132880 -2.329560 12.994200 -0.242716 4.980390 -89.640500 -1.004310 -70.305100 5.348090 -0.000007 -0.000001 -66.494900 34.800500 -18.674900 24.328600 0.000019 0.000005 3.506290 4.553940 -37.657000 22.291600 -0.000001 0.000005 7.224020 5.555910 -8.990060 12.994500 -0.242716 -4.980390 87.807600 7.639740 -73.935800 -5.348130 -0.000001 -0.000004 -59.290700 31.150900 -22.333500 -24.328900 0.000322 -0.000009 3.262270 9.448510 -19.154100 -22.291500 -0.000108 -0.000004 10.602100 5.364400 -1.813730 -2.192480 -6.469440 -0.000000 -174.501000 -7.015060 -19.561800 39.081100 -0.000007 -0.000012 0.108902 -0.047228 66.552600 40.985400 -0.000006 -0.000013 2.852900 -4.189200 -47.837300 11.754300 -0.000000 0.000003 -0.007145 -0.080916 -19.871000 -2.192510 6.469440 -0.000001 -177.624000 9.304950 172.923000 -39.081100 -0.002282 -0.040193 -0.094606 0.209035 25.099900 -40.985400 0.000008 0.000006 0.741458 -3.000520 -65.722000 -11.754300 -0.000006 -0.000006 -0.008285 -0.090345 -20.252300
